<svg width="68" height="54" viewBox="0 0 68 54" fill="none" xmlns="http://www.w3.org/2000/svg">
<path d="M14.352 42.6L10.632 51H9.756L6.036 42.6H6.996L10.212 49.896L13.452 42.6H14.352ZM15.5711 42.6H16.4591V51H15.5711V42.6ZM24.4602 48.756H19.7802L18.7722 51H17.8482L21.6882 42.6H22.5642L26.4042 51H25.4682L24.4602 48.756ZM24.1362 48.036L22.1202 43.524L20.1042 48.036H24.1362ZM33.5926 46.8H34.4446V50.004C34.0526 50.348 33.5886 50.612 33.0526 50.796C32.5166 50.98 31.9526 51.072 31.3606 51.072C30.5206 51.072 29.7646 50.888 29.0926 50.52C28.4206 50.152 27.8926 49.644 27.5086 48.996C27.1246 48.34 26.9326 47.608 26.9326 46.8C26.9326 45.992 27.1246 45.264 27.5086 44.616C27.8926 43.96 28.4206 43.448 29.0926 43.08C29.7646 42.712 30.5246 42.528 31.3726 42.528C32.0126 42.528 32.6006 42.632 33.1366 42.84C33.6726 43.04 34.1246 43.34 34.4926 43.74L33.9406 44.304C33.2766 43.648 32.4326 43.32 31.4086 43.32C30.7286 43.32 30.1126 43.472 29.5606 43.776C29.0166 44.072 28.5886 44.488 28.2766 45.024C27.9646 45.552 27.8086 46.144 27.8086 46.8C27.8086 47.456 27.9646 48.048 28.2766 48.576C28.5886 49.104 29.0166 49.52 29.5606 49.824C30.1046 50.128 30.7166 50.28 31.3966 50.28C32.2606 50.28 32.9926 50.064 33.5926 49.632V46.8ZM42.8978 50.232V51H36.9578V42.6H42.7178V43.368H37.8458V46.356H42.1898V47.112H37.8458V50.232H42.8978ZM52.0052 42.6V51H51.2732L45.8732 44.184V51H44.9852V42.6H45.7172L51.1292 49.416V42.6H52.0052ZM57.0629 51.072C56.4389 51.072 55.8389 50.972 55.2629 50.772C54.6949 50.572 54.2549 50.308 53.9429 49.98L54.2909 49.296C54.5949 49.6 54.9989 49.848 55.5029 50.04C56.0069 50.224 56.5269 50.316 57.0629 50.316C57.8149 50.316 58.3789 50.18 58.7549 49.908C59.1309 49.628 59.3189 49.268 59.3189 48.828C59.3189 48.492 59.2149 48.224 59.0069 48.024C58.8069 47.824 58.5589 47.672 58.2629 47.568C57.9669 47.456 57.5549 47.336 57.0269 47.208C56.3949 47.048 55.8909 46.896 55.5149 46.752C55.1389 46.6 54.8149 46.372 54.5429 46.068C54.2789 45.764 54.1469 45.352 54.1469 44.832C54.1469 44.408 54.2589 44.024 54.4829 43.68C54.7069 43.328 55.0509 43.048 55.5149 42.84C55.9789 42.632 56.5549 42.528 57.2429 42.528C57.7229 42.528 58.1909 42.596 58.6469 42.732C59.1109 42.86 59.5109 43.04 59.8469 43.272L59.5469 43.98C59.1949 43.748 58.8189 43.576 58.4189 43.464C58.0189 43.344 57.6269 43.284 57.2429 43.284C56.5069 43.284 55.9509 43.428 55.5749 43.716C55.2069 43.996 55.0229 44.36 55.0229 44.808C55.0229 45.144 55.1229 45.416 55.3229 45.624C55.5309 45.824 55.7869 45.98 56.0909 46.092C56.4029 46.196 56.8189 46.312 57.3389 46.44C57.9549 46.592 58.4509 46.744 58.8269 46.896C59.2109 47.04 59.5349 47.264 59.7989 47.568C60.0629 47.864 60.1949 48.268 60.1949 48.78C60.1949 49.204 60.0789 49.592 59.8469 49.944C59.6229 50.288 59.2749 50.564 58.8029 50.772C58.3309 50.972 57.7509 51.072 57.0629 51.072Z" fill="black"/>
<path d="M16.9453 27.0039L23.5371 28.4805C22.9863 30.3789 21.8027 31.8555 19.9863 32.9102C18.1465 33.9648 15.873 34.4922 13.166 34.4922C9.58008 34.4922 6.75586 33.6836 4.69336 32.0664C2.63086 30.4492 1.59961 28.2812 1.59961 25.5625C1.59961 22.9492 2.56055 20.8047 4.48242 19.1289C6.39258 17.4648 8.78906 16.6328 11.6719 16.6328C14.1094 16.6328 15.9902 17.1191 17.3145 18.0918V16.9492H22.7109V24.2266H17.3145C16.6465 22.2812 15.5156 21.3086 13.9219 21.3086C12.8438 21.3086 12.0117 21.7246 11.4258 22.5566C10.8398 23.4121 10.5469 24.4492 10.5469 25.668C10.5469 26.9922 10.8633 28.0352 11.4961 28.7969C12.1172 29.5586 12.9258 29.9395 13.9219 29.9395C15.5625 29.9395 16.5703 28.9609 16.9453 27.0039ZM39.7266 34H26.3672V28.6387H28.4766V22.3105H26.332V16.9492H37.3359V19.2871C38.1797 18.5723 39.2871 17.9512 40.6582 17.4238C42.0176 16.8965 43.3184 16.6328 44.5605 16.6328C47.4551 16.6328 49.3945 17.7461 50.3789 19.9727C52.9922 17.7461 55.6582 16.6328 58.377 16.6328C59.8652 16.6328 61.0898 16.9492 62.0508 17.582C63.0352 18.2266 63.7266 19.082 64.125 20.1484C64.5352 21.25 64.7402 22.7969 64.7402 24.7891V28.6387H66.9902V34H55.8984V26.6699C55.8984 24.7598 55.752 23.5703 55.459 23.1016C55.166 22.6328 54.6387 22.3984 53.877 22.3984C52.916 22.3984 51.9492 22.7617 50.9766 23.4883V28.6387H53.3848V34H42.1348V26.7051C42.1348 24.8301 42.0059 23.6406 41.748 23.1367C41.4902 22.6445 40.9688 22.3984 40.1836 22.3984C39.2812 22.3984 38.332 22.7617 37.3359 23.4883V28.6387H39.7266V34Z" fill="black"/>
</svg>
