<svg width="128" height="58" viewBox="0 0 128 58" fill="none" xmlns="http://www.w3.org/2000/svg">
<path d="M4 6H2V8V46C2 51.5228 6.47715 56 12 56H124H126V54V16C126 10.4772 121.523 6 116 6H4Z" stroke="black" stroke-width="4"/>
<path d="M44.352 41.6L40.632 50H39.756L36.036 41.6H36.996L40.212 48.896L43.452 41.6H44.352ZM45.5711 41.6H46.4591V50H45.5711V41.6ZM54.4602 47.756H49.7802L48.7722 50H47.8482L51.6882 41.6H52.5642L56.4042 50H55.4682L54.4602 47.756ZM54.1362 47.036L52.1202 42.524L50.1042 47.036H54.1362ZM63.5926 45.8H64.4446V49.004C64.0526 49.348 63.5886 49.612 63.0526 49.796C62.5166 49.98 61.9526 50.072 61.3606 50.072C60.5206 50.072 59.7646 49.888 59.0926 49.52C58.4206 49.152 57.8926 48.644 57.5086 47.996C57.1246 47.34 56.9326 46.608 56.9326 45.8C56.9326 44.992 57.1246 44.264 57.5086 43.616C57.8926 42.96 58.4206 42.448 59.0926 42.08C59.7646 41.712 60.5246 41.528 61.3726 41.528C62.0126 41.528 62.6006 41.632 63.1366 41.84C63.6726 42.04 64.1246 42.34 64.4926 42.74L63.9406 43.304C63.2766 42.648 62.4326 42.32 61.4086 42.32C60.7286 42.32 60.1126 42.472 59.5606 42.776C59.0166 43.072 58.5886 43.488 58.2766 44.024C57.9646 44.552 57.8086 45.144 57.8086 45.8C57.8086 46.456 57.9646 47.048 58.2766 47.576C58.5886 48.104 59.0166 48.52 59.5606 48.824C60.1046 49.128 60.7166 49.28 61.3966 49.28C62.2606 49.28 62.9926 49.064 63.5926 48.632V45.8ZM72.8978 49.232V50H66.9578V41.6H72.7178V42.368H67.8458V45.356H72.1898V46.112H67.8458V49.232H72.8978ZM82.0052 41.6V50H81.2732L75.8732 43.184V50H74.9852V41.6H75.7172L81.1292 48.416V41.6H82.0052ZM87.0629 50.072C86.4389 50.072 85.8389 49.972 85.2629 49.772C84.6949 49.572 84.2549 49.308 83.9429 48.98L84.2909 48.296C84.5949 48.6 84.9989 48.848 85.5029 49.04C86.0069 49.224 86.5269 49.316 87.0629 49.316C87.8149 49.316 88.3789 49.18 88.7549 48.908C89.1309 48.628 89.3189 48.268 89.3189 47.828C89.3189 47.492 89.2149 47.224 89.0069 47.024C88.8069 46.824 88.5589 46.672 88.2629 46.568C87.9669 46.456 87.5549 46.336 87.0269 46.208C86.3949 46.048 85.8909 45.896 85.5149 45.752C85.1389 45.6 84.8149 45.372 84.5429 45.068C84.2789 44.764 84.1469 44.352 84.1469 43.832C84.1469 43.408 84.2589 43.024 84.4829 42.68C84.7069 42.328 85.0509 42.048 85.5149 41.84C85.9789 41.632 86.5549 41.528 87.2429 41.528C87.7229 41.528 88.1909 41.596 88.6469 41.732C89.1109 41.86 89.5109 42.04 89.8469 42.272L89.5469 42.98C89.1949 42.748 88.8189 42.576 88.4189 42.464C88.0189 42.344 87.6269 42.284 87.2429 42.284C86.5069 42.284 85.9509 42.428 85.5749 42.716C85.2069 42.996 85.0229 43.36 85.0229 43.808C85.0229 44.144 85.1229 44.416 85.3229 44.624C85.5309 44.824 85.7869 44.98 86.0909 45.092C86.4029 45.196 86.8189 45.312 87.3389 45.44C87.9549 45.592 88.4509 45.744 88.8269 45.896C89.2109 46.04 89.5349 46.264 89.7989 46.568C90.0629 46.864 90.1949 47.268 90.1949 47.78C90.1949 48.204 90.0789 48.592 89.8469 48.944C89.6229 49.288 89.2749 49.564 88.8029 49.772C88.3309 49.972 87.7509 50.072 87.0629 50.072Z" fill="black"/>
<path d="M43.9453 27.0039L50.5371 28.4805C49.9863 30.3789 48.8027 31.8555 46.9863 32.9102C45.1465 33.9648 42.873 34.4922 40.166 34.4922C36.5801 34.4922 33.7559 33.6836 31.6934 32.0664C29.6309 30.4492 28.5996 28.2812 28.5996 25.5625C28.5996 22.9492 29.5605 20.8047 31.4824 19.1289C33.3926 17.4648 35.7891 16.6328 38.6719 16.6328C41.1094 16.6328 42.9902 17.1191 44.3145 18.0918V16.9492H49.7109V24.2266H44.3145C43.6465 22.2812 42.5156 21.3086 40.9219 21.3086C39.8438 21.3086 39.0117 21.7246 38.4258 22.5566C37.8398 23.4121 37.5469 24.4492 37.5469 25.668C37.5469 26.9922 37.8633 28.0352 38.4961 28.7969C39.1172 29.5586 39.9258 29.9395 40.9219 29.9395C42.5625 29.9395 43.5703 28.9609 43.9453 27.0039ZM66.7266 34H53.3672V28.6387H55.4766V22.3105H53.332V16.9492H64.3359V19.2871C65.1797 18.5723 66.2871 17.9512 67.6582 17.4238C69.0176 16.8965 70.3184 16.6328 71.5605 16.6328C74.4551 16.6328 76.3945 17.7461 77.3789 19.9727C79.9922 17.7461 82.6582 16.6328 85.377 16.6328C86.8652 16.6328 88.0898 16.9492 89.0508 17.582C90.0352 18.2266 90.7266 19.082 91.125 20.1484C91.5352 21.25 91.7402 22.7969 91.7402 24.7891V28.6387H93.9902V34H82.8984V26.6699C82.8984 24.7598 82.752 23.5703 82.459 23.1016C82.166 22.6328 81.6387 22.3984 80.877 22.3984C79.916 22.3984 78.9492 22.7617 77.9766 23.4883V28.6387H80.3848V34H69.1348V26.7051C69.1348 24.8301 69.0059 23.6406 68.748 23.1367C68.4902 22.6445 67.9688 22.3984 67.1836 22.3984C66.2812 22.3984 65.332 22.7617 64.3359 23.4883V28.6387H66.7266V34Z" fill="black"/>
</svg>
